<mxfile host="app.diagrams.net" modified="2023-11-25T10:56:18.126Z" agent="Mozilla/5.0 (Windows NT 10.0; Win64; x64) AppleWebKit/537.36 (KHTML, like Gecko) Chrome/119.0.0.0 Safari/537.36" etag="trfXes4b3hEUuPB-aUAQ" version="22.1.4" type="github">
  <diagram name="Page-1" id="2YBvvXClWsGukQMizWep">
    <mxGraphModel dx="1032" dy="530" grid="1" gridSize="10" guides="1" tooltips="1" connect="1" arrows="1" fold="1" page="1" pageScale="1" pageWidth="850" pageHeight="1100" math="0" shadow="0">
      <root>
        <mxCell id="0" />
        <mxCell id="1" parent="0" />
        <mxCell id="YS4YUwTzeqZwbcv_esHb-11" value="" style="shape=umlLifeline;perimeter=lifelinePerimeter;whiteSpace=wrap;html=1;container=1;dropTarget=0;collapsible=0;recursiveResize=0;outlineConnect=0;portConstraint=eastwest;newEdgeStyle={&quot;curved&quot;:0,&quot;rounded&quot;:0};participant=umlControl;" vertex="1" parent="1">
          <mxGeometry x="470" y="30" width="40" height="570" as="geometry" />
        </mxCell>
        <mxCell id="YS4YUwTzeqZwbcv_esHb-27" value="" style="html=1;points=[[0,0,0,0,5],[0,1,0,0,-5],[1,0,0,0,5],[1,1,0,0,-5]];perimeter=orthogonalPerimeter;outlineConnect=0;targetShapes=umlLifeline;portConstraint=eastwest;newEdgeStyle={&quot;curved&quot;:0,&quot;rounded&quot;:0};" vertex="1" parent="YS4YUwTzeqZwbcv_esHb-11">
          <mxGeometry x="10" y="270" width="10" height="290" as="geometry" />
        </mxCell>
        <mxCell id="YS4YUwTzeqZwbcv_esHb-13" value="" style="shape=umlLifeline;perimeter=lifelinePerimeter;whiteSpace=wrap;html=1;container=1;dropTarget=0;collapsible=0;recursiveResize=0;outlineConnect=0;portConstraint=eastwest;newEdgeStyle={&quot;curved&quot;:0,&quot;rounded&quot;:0};participant=umlEntity;" vertex="1" parent="1">
          <mxGeometry x="670" y="30" width="40" height="580" as="geometry" />
        </mxCell>
        <mxCell id="YS4YUwTzeqZwbcv_esHb-65" value="" style="html=1;points=[[0,0,0,0,5],[0,1,0,0,-5],[1,0,0,0,5],[1,1,0,0,-5]];perimeter=orthogonalPerimeter;outlineConnect=0;targetShapes=umlLifeline;portConstraint=eastwest;newEdgeStyle={&quot;curved&quot;:0,&quot;rounded&quot;:0};" vertex="1" parent="YS4YUwTzeqZwbcv_esHb-13">
          <mxGeometry x="20" y="305" width="10" height="35" as="geometry" />
        </mxCell>
        <mxCell id="YS4YUwTzeqZwbcv_esHb-66" value="7: Vérifier les donnéés" style="html=1;align=left;spacingLeft=2;endArrow=block;rounded=0;edgeStyle=orthogonalEdgeStyle;curved=0;rounded=0;" edge="1" target="YS4YUwTzeqZwbcv_esHb-65" parent="YS4YUwTzeqZwbcv_esHb-13">
          <mxGeometry relative="1" as="geometry">
            <mxPoint x="25" y="285" as="sourcePoint" />
            <Array as="points">
              <mxPoint x="55" y="315" />
            </Array>
          </mxGeometry>
        </mxCell>
        <mxCell id="YS4YUwTzeqZwbcv_esHb-15" value="" style="shape=umlLifeline;perimeter=lifelinePerimeter;whiteSpace=wrap;html=1;container=1;dropTarget=0;collapsible=0;recursiveResize=0;outlineConnect=0;portConstraint=eastwest;newEdgeStyle={&quot;curved&quot;:0,&quot;rounded&quot;:0};participant=umlBoundary;" vertex="1" parent="1">
          <mxGeometry x="290" y="30" width="50" height="590" as="geometry" />
        </mxCell>
        <mxCell id="YS4YUwTzeqZwbcv_esHb-35" value="" style="html=1;points=[[0,0,0,0,5],[0,1,0,0,-5],[1,0,0,0,5],[1,1,0,0,-5]];perimeter=orthogonalPerimeter;outlineConnect=0;targetShapes=umlLifeline;portConstraint=eastwest;newEdgeStyle={&quot;curved&quot;:0,&quot;rounded&quot;:0};" vertex="1" parent="YS4YUwTzeqZwbcv_esHb-15">
          <mxGeometry x="25" y="270" width="10" height="290" as="geometry" />
        </mxCell>
        <mxCell id="YS4YUwTzeqZwbcv_esHb-17" value="" style="shape=umlLifeline;perimeter=lifelinePerimeter;whiteSpace=wrap;html=1;container=1;dropTarget=0;collapsible=0;recursiveResize=0;outlineConnect=0;portConstraint=eastwest;newEdgeStyle={&quot;curved&quot;:0,&quot;rounded&quot;:0};participant=umlActor;" vertex="1" parent="1">
          <mxGeometry x="100" y="60" width="20" height="570" as="geometry" />
        </mxCell>
        <mxCell id="YS4YUwTzeqZwbcv_esHb-26" value="" style="html=1;points=[[0,0,0,0,5],[0,1,0,0,-5],[1,0,0,0,5],[1,1,0,0,-5]];perimeter=orthogonalPerimeter;outlineConnect=0;targetShapes=umlLifeline;portConstraint=eastwest;newEdgeStyle={&quot;curved&quot;:0,&quot;rounded&quot;:0};" vertex="1" parent="YS4YUwTzeqZwbcv_esHb-17">
          <mxGeometry x="5" y="80" width="10" height="450" as="geometry" />
        </mxCell>
        <mxCell id="YS4YUwTzeqZwbcv_esHb-28" value="&lt;b&gt;: &lt;u&gt;Connexion&lt;/u&gt;&lt;/b&gt;" style="text;html=1;align=center;verticalAlign=middle;resizable=0;points=[];autosize=1;strokeColor=none;fillColor=none;" vertex="1" parent="1">
          <mxGeometry x="310" y="70" width="90" height="30" as="geometry" />
        </mxCell>
        <mxCell id="YS4YUwTzeqZwbcv_esHb-29" value="&lt;b&gt;: &lt;u&gt;Gestion Auth&lt;/u&gt;&lt;/b&gt;" style="text;html=1;align=center;verticalAlign=middle;resizable=0;points=[];autosize=1;strokeColor=none;fillColor=none;" vertex="1" parent="1">
          <mxGeometry x="480" y="70" width="110" height="30" as="geometry" />
        </mxCell>
        <mxCell id="YS4YUwTzeqZwbcv_esHb-30" value="&lt;b&gt;: &lt;u&gt;Utilisateurs&lt;/u&gt;&lt;/b&gt;" style="text;html=1;align=center;verticalAlign=middle;resizable=0;points=[];autosize=1;strokeColor=none;fillColor=none;" vertex="1" parent="1">
          <mxGeometry x="680" y="70" width="100" height="30" as="geometry" />
        </mxCell>
        <mxCell id="YS4YUwTzeqZwbcv_esHb-34" value="1 : Saisir login et mot de passe" style="html=1;verticalAlign=bottom;endArrow=block;curved=0;rounded=0;" edge="1" parent="1" target="YS4YUwTzeqZwbcv_esHb-15">
          <mxGeometry x="-0.1774" y="10" width="80" relative="1" as="geometry">
            <mxPoint x="120" y="170" as="sourcePoint" />
            <mxPoint x="200" y="170" as="targetPoint" />
            <mxPoint as="offset" />
          </mxGeometry>
        </mxCell>
        <mxCell id="YS4YUwTzeqZwbcv_esHb-36" value="" style="html=1;points=[[0,0,0,0,5],[0,1,0,0,-5],[1,0,0,0,5],[1,1,0,0,-5]];perimeter=orthogonalPerimeter;outlineConnect=0;targetShapes=umlLifeline;portConstraint=eastwest;newEdgeStyle={&quot;curved&quot;:0,&quot;rounded&quot;:0};" vertex="1" parent="1">
          <mxGeometry x="315" y="170" width="10" height="40" as="geometry" />
        </mxCell>
        <mxCell id="YS4YUwTzeqZwbcv_esHb-37" value="" style="html=1;align=left;spacingLeft=2;endArrow=block;rounded=0;edgeStyle=orthogonalEdgeStyle;curved=0;rounded=0;" edge="1" target="YS4YUwTzeqZwbcv_esHb-36" parent="1">
          <mxGeometry x="-0.0588" y="30" relative="1" as="geometry">
            <mxPoint x="320" y="170" as="sourcePoint" />
            <Array as="points">
              <mxPoint x="350" y="200" />
            </Array>
            <mxPoint as="offset" />
          </mxGeometry>
        </mxCell>
        <mxCell id="YS4YUwTzeqZwbcv_esHb-38" value="2 : vérifier la saisie" style="edgeLabel;html=1;align=center;verticalAlign=middle;resizable=0;points=[];" vertex="1" connectable="0" parent="YS4YUwTzeqZwbcv_esHb-37">
          <mxGeometry x="-0.0353" y="26" relative="1" as="geometry">
            <mxPoint x="-6" y="-31" as="offset" />
          </mxGeometry>
        </mxCell>
        <mxCell id="YS4YUwTzeqZwbcv_esHb-41" style="edgeStyle=orthogonalEdgeStyle;rounded=0;orthogonalLoop=1;jettySize=auto;html=1;curved=0;exitX=1;exitY=0;exitDx=0;exitDy=5;exitPerimeter=0;entryX=0;entryY=0;entryDx=0;entryDy=5;entryPerimeter=0;" edge="1" parent="1" source="YS4YUwTzeqZwbcv_esHb-35" target="YS4YUwTzeqZwbcv_esHb-27">
          <mxGeometry relative="1" as="geometry" />
        </mxCell>
        <mxCell id="YS4YUwTzeqZwbcv_esHb-42" value="4: Lire (login,mot de passe)" style="text;html=1;align=center;verticalAlign=middle;resizable=0;points=[];autosize=1;strokeColor=none;fillColor=none;" vertex="1" parent="1">
          <mxGeometry x="315" y="280" width="170" height="30" as="geometry" />
        </mxCell>
        <mxCell id="YS4YUwTzeqZwbcv_esHb-45" value="5: rechercher (login,mot de passe)" style="text;html=1;align=center;verticalAlign=middle;resizable=0;points=[];autosize=1;strokeColor=none;fillColor=none;" vertex="1" parent="1">
          <mxGeometry x="480" y="270" width="210" height="30" as="geometry" />
        </mxCell>
        <mxCell id="YS4YUwTzeqZwbcv_esHb-46" value="6: Réponse (accès)" style="html=1;verticalAlign=bottom;endArrow=open;dashed=1;endSize=8;curved=0;rounded=0;" edge="1" parent="1">
          <mxGeometry x="0.4698" y="-10" relative="1" as="geometry">
            <mxPoint x="680" y="370" as="sourcePoint" />
            <mxPoint x="489.5" y="370" as="targetPoint" />
            <mxPoint as="offset" />
          </mxGeometry>
        </mxCell>
        <mxCell id="YS4YUwTzeqZwbcv_esHb-48" value="Alt" style="shape=umlFrame;whiteSpace=wrap;html=1;pointerEvents=0;" vertex="1" parent="1">
          <mxGeometry x="20" y="390" width="550" height="160" as="geometry" />
        </mxCell>
        <mxCell id="YS4YUwTzeqZwbcv_esHb-49" value="&lt;b&gt;&lt;font style=&quot;font-size: 11px;&quot;&gt;[accès= refusé]&lt;/font&gt;&lt;/b&gt;" style="text;html=1;align=center;verticalAlign=middle;resizable=0;points=[];autosize=1;strokeColor=none;fillColor=none;" vertex="1" parent="1">
          <mxGeometry x="110" y="390" width="100" height="30" as="geometry" />
        </mxCell>
        <mxCell id="YS4YUwTzeqZwbcv_esHb-55" value="7: Message d&#39;erreur ( login ou mot de passe erroné )" style="html=1;verticalAlign=bottom;endArrow=open;dashed=1;endSize=8;curved=0;rounded=0;" edge="1" parent="1">
          <mxGeometry relative="1" as="geometry">
            <mxPoint x="479.5" y="440" as="sourcePoint" />
            <mxPoint x="100" y="440" as="targetPoint" />
          </mxGeometry>
        </mxCell>
        <mxCell id="YS4YUwTzeqZwbcv_esHb-56" value="Loop" style="shape=umlFrame;whiteSpace=wrap;html=1;pointerEvents=0;" vertex="1" parent="1">
          <mxGeometry x="40" y="110" width="400" height="130" as="geometry" />
        </mxCell>
        <mxCell id="YS4YUwTzeqZwbcv_esHb-57" value="3: Message d&#39;érreur" style="html=1;verticalAlign=bottom;endArrow=open;dashed=1;endSize=8;curved=0;rounded=0;" edge="1" parent="1" target="YS4YUwTzeqZwbcv_esHb-26">
          <mxGeometry x="0.4634" relative="1" as="geometry">
            <mxPoint x="320" y="200" as="sourcePoint" />
            <mxPoint x="240" y="200" as="targetPoint" />
            <mxPoint as="offset" />
          </mxGeometry>
        </mxCell>
        <mxCell id="YS4YUwTzeqZwbcv_esHb-58" value="&lt;b&gt;&lt;font style=&quot;font-size: 10px;&quot;&gt;[Non valide]&lt;/font&gt;&lt;/b&gt;" style="text;html=1;align=center;verticalAlign=middle;resizable=0;points=[];autosize=1;strokeColor=none;fillColor=none;" vertex="1" parent="1">
          <mxGeometry x="30" y="170" width="80" height="30" as="geometry" />
        </mxCell>
        <mxCell id="YS4YUwTzeqZwbcv_esHb-59" value="8: Authentification réussie" style="html=1;verticalAlign=bottom;endArrow=open;dashed=1;endSize=8;curved=0;rounded=0;" edge="1" parent="1">
          <mxGeometry relative="1" as="geometry">
            <mxPoint x="480" y="520" as="sourcePoint" />
            <mxPoint x="99.5" y="520" as="targetPoint" />
          </mxGeometry>
        </mxCell>
        <mxCell id="YS4YUwTzeqZwbcv_esHb-60" value="&lt;font style=&quot;font-size: 11px;&quot;&gt;&lt;b&gt;[Else]&lt;/b&gt;&lt;/font&gt;" style="text;html=1;align=center;verticalAlign=middle;resizable=0;points=[];autosize=1;strokeColor=none;fillColor=none;" vertex="1" parent="1">
          <mxGeometry x="35" y="478" width="50" height="30" as="geometry" />
        </mxCell>
        <mxCell id="YS4YUwTzeqZwbcv_esHb-64" style="edgeStyle=orthogonalEdgeStyle;rounded=0;orthogonalLoop=1;jettySize=auto;html=1;curved=0;entryX=0.595;entryY=0.491;entryDx=0;entryDy=0;entryPerimeter=0;" edge="1" parent="1" source="YS4YUwTzeqZwbcv_esHb-11" target="YS4YUwTzeqZwbcv_esHb-13">
          <mxGeometry relative="1" as="geometry" />
        </mxCell>
        <mxCell id="YS4YUwTzeqZwbcv_esHb-70" value="" style="endArrow=none;html=1;edgeStyle=orthogonalEdgeStyle;rounded=0;dashed=1;" edge="1" parent="1">
          <mxGeometry relative="1" as="geometry">
            <mxPoint x="20" y="470" as="sourcePoint" />
            <mxPoint x="570" y="469.5" as="targetPoint" />
          </mxGeometry>
        </mxCell>
      </root>
    </mxGraphModel>
  </diagram>
</mxfile>
